<?xml version="1.0" encoding="UTF-8" standalone="no"?> <!-- Created with Vectornator for iOS (http://vectornator.io/) --><!DOCTYPE svg PUBLIC "-//W3C//DTD SVG 1.1//EN" "http://www.w3.org/Graphics/SVG/1.1/DTD/svg11.dtd">
<svg height="100%" style="fill-rule:evenodd;clip-rule:evenodd;stroke-linecap:round;stroke-linejoin:round;" xmlns:xlink="http://www.w3.org/1999/xlink" xmlns="http://www.w3.org/2000/svg" xml:space="preserve" width="100%" xmlns:vectornator="http://vectornator.io" version="1.1" viewBox="0 0 2388 1668">
<metadata>
<vectornator:setting key="DisplayWhiteBackground" value="0"/>
<vectornator:setting key="RulersVisible" value="1"/>
<vectornator:setting key="GridSpacing" value="36"/>
<vectornator:setting key="Units" value="Pixels"/>
<vectornator:setting key="DynamicGuides" value="0"/>
<vectornator:setting key="SnapToPoints" value="0"/>
<vectornator:setting key="SnapToGrid" value="0"/>
<vectornator:setting key="SnapToGuides" value="1"/>
<vectornator:setting key="ShowGrid" value="1"/>
<vectornator:setting key="SnapToEdges" value="0"/>
</metadata>
<defs/>
<g id="Layer 2" vectornator:layerName="Layer 2">
<path stroke="#000000" stroke-width="7" d="M253+709C243.175+713.913+248.963+706.049+252+702C312.049+621.935+428.128+680.436+507+641C559.132+614.934+523.7+583.15+480+605C450.204+619.898+428.131+646.725+404+669C389.355+682.518+379.859+700.569+367+716C281.126+819.049+440.698+801.492+432+758C426.059+728.294+370.175+770.993+362+778C216.344+902.848+335.007+1028.49+466+832C507.312+770.032+555.652+703.261+582+633C589.315+613.494+586.043+606.9+577+628C566.885+651.602+428.297+999.692+545+918C570.191+900.366+587.046+876.291+605+852C644.47+798.6+741.052+540.179+701+613C677.1+656.455+660.573+702.28+645+749C562.513+996.462+541.982+925.018+659+808C698.2+768.8+647+894.795+647+906C647+957.935+765.828+790.24+756+804C744.257+820.44+683.01+931.99+709+906C741.547+873.453+796.262+719.346+746+845C712.489+928.777+762.59+884.683+790+839C799.897+822.506+817+768.765+817+788C817+879.064+778.927+903.127+843+791C863.901+754.424+784.689+903.517+881+876" fill="#ffffff" stroke-linecap="butt" opacity="1" stroke-linejoin="round"/>
<path stroke="#000000" stroke-width="7" d="M464+741C464+730.156+606.074+688.405+626+682" fill="#ffffff" stroke-linecap="butt" opacity="1" stroke-linejoin="round"/>
<path stroke="#000000" stroke-width="7" d="M1101+645C1101+641.558+1096.11+703.139+1094+794C1089.65+980.928+1091.33+897.683+1096+767C1104.79+520.97+1091.76+636.474+1023+799C998.893+855.979+887.342+977.637+930+839C962.384+733.751+1044.29+824+1101+824" fill="#ffffff" stroke-linecap="butt" opacity="1" stroke-linejoin="round"/>
<path stroke="#000000" stroke-width="7" d="M1120+903L1122+901L1128+894L1123+897L1120+901L1119+904L1119+906L1121+906L1122+904L1123+901L1124+897L1124+894L1123+892L1123+892" fill="#ffffff" stroke-linecap="butt" opacity="1" stroke-linejoin="round"/>
<path stroke="#000000" stroke-width="7" d="M1176+890C1168.72+904.555+1199.9+880.185+1202+878C1226.45+852.609+1253.47+828.037+1276+801C1319.87+748.359+1382.67+687.3+1400+618C1404.48+600.084+1398.19+539.417+1375+580C1322.37+672.11+1372.62+777.371+1321+872C1246.39+1008.79+1177.97+822.987+1246+857C1259.76+863.879+1268.61+866.214+1276+881C1305.12+939.234+1343.57+872.273+1364+846C1400.51+799.06+1362.93+889.87+1364+888C1389.52+843.333+1424.47+794.595+1396+880C1395.8+880.588+1390.02+894.961+1394+887C1422.45+830.097+1422+809.607+1422+873C1422+930.507+1491.96+728.468+1455+864C1451.25+877.768+1446.25+892.805+1464+879C1504.12+847.792+1528.91+784.214+1547+739C1552.13+726.184+1572.37+663.086+1568+674C1540.33+743.177+1457.75+981.544+1576+816C1602.85+778.404+1619.96+740.151+1631+696C1634.66+681.367+1639.4+653.073+1625+679C1596.64+730.051+1574.56+784.21+1552+838C1546.45+851.243+1521.92+880.816+1536+878C1568.55+871.49+1573.26+810.456+1606+805C1632.13+800.645+1550.85+892.153+1627+871C1640.26+867.318+1652.57+861.943+1663+853" fill="#ffffff" stroke-linecap="butt" opacity="1" stroke-linejoin="round"/>
<path stroke="#000000" stroke-width="7" d="M1513+758C1532.68+758+1552.32+756+1572+756" fill="#ffffff" stroke-linecap="butt" opacity="1" stroke-linejoin="round"/>
<path stroke="#000000" stroke-width="7" d="M1487+745L1485+747L1492+757L1494+757L1497+754L1497+752L1497+749L1497+747L1495+745L1493+745L1491+745L1489+747L1487+749L1489+750L1492+750L1492+750" fill="#ffffff" stroke-linecap="butt" opacity="1" stroke-linejoin="round"/>
</g>
</svg>
